<?xml version="1.0" encoding="UTF-8"?>
<svg width="128px" height="128px" viewBox="0 0 128 128" version="1.1" xmlns="http://www.w3.org/2000/svg" xmlns:xlink="http://www.w3.org/1999/xlink">
    <title>Credit Card Processing</title>
    <defs>
        <linearGradient x1="50%" y1="0%" x2="50%" y2="100%" id="linearGradient-1">
            <stop stop-color="#4F46E5" offset="0%"></stop>
            <stop stop-color="#6366F1" offset="100%"></stop>
        </linearGradient>
    </defs>
    <g stroke="none" stroke-width="1" fill="none" fill-rule="evenodd">
        <g>
            <rect fill="#FFFFFF" x="0" y="0" width="128" height="128" rx="8"></rect>
            <g transform="translate(8.000000, 20.000000)">
                <rect fill="url(#linearGradient-1)" x="0" y="0" width="112" height="70" rx="8"></rect>
                <rect fill="#FFFFFF" opacity="0.2" x="8" y="48" width="48" height="8" rx="2"></rect>
                <rect fill="#FFFFFF" opacity="0.3" x="8" y="12" width="96" height="8" rx="2"></rect>
                <rect fill="#FFFFFF" opacity="0.6" x="8" y="28" width="32" height="6" rx="2"></rect>
                <g transform="translate(48.000000, 60.000000)" fill="#FFFFFF">
                    <circle cx="4" cy="4" r="4"></circle>
                    <circle cx="16" cy="4" r="4"></circle>
                    <circle cx="28" cy="4" r="4" opacity="0.5"></circle>
                </g>
            </g>
            <g transform="translate(64.000000, 64.000000)" fill="#4F46E5">
                <circle cx="32" cy="32" r="32" opacity="0.1"></circle>
                <path d="M40.8284271,23.1715729 L32,32 L32,16 C32,15.4477153 31.5522847,15 31,15 C30.4477153,15 30,15.4477153 30,16 L30,32 L21.1715729,23.1715729 C20.7810486,22.7810486 20.1478822,22.7810486 19.7573579,23.1715729 C19.3668336,23.5620972 19.3668336,24.1952636 19.7573579,24.5857879 L30.2928932,35.1213232 C30.6834175,35.5118475 31.3165839,35.5118475 31.7071082,35.1213232 L42.2426435,24.5857879 C42.6331678,24.1952636 42.6331678,23.5620972 42.2426435,23.1715729 C41.8521192,22.7810486 41.2189528,22.7810486 40.8284271,23.1715729 Z" fill-rule="nonzero"></path>
            </g>
        </g>
    </g>
</svg>
