<svg width="998" height="637" viewBox="0 0 998 637" fill="none" xmlns="http://www.w3.org/2000/svg">
<path d="M73 483C59 483 52 476 52 462V165C52 151 59 144 73 144C82.1667 144 89.8333 148.5 96 157.5L214 335L205 336.5L324 157.5C329.667 148.5 338.167 144 349.5 144C360.833 144 366.5 151 366.5 165V462C366.5 476 359.5 483 345.5 483C331.5 483 324.5 476 324.5 462V207L337.5 211.5L232.5 366C226.333 375 217.833 379.5 207 379.5C199.5 379.5 192.667 375 186.5 366L81.5 211.5L94 215V462C94 476 87 483 73 483ZM421.457 483C407.457 483 400.457 476 400.457 462V165C400.457 151 407.457 144 421.457 144H541.957C585.457 144 617.457 154.333 637.957 175C658.624 195.5 668.957 227.5 668.957 271V356C668.957 399.5 658.707 431.583 638.207 452.25C617.874 472.75 585.79 483 541.957 483H421.457ZM442.457 441H541.957C563.29 441 580.124 438.417 592.457 433.25C604.957 427.917 613.79 419.083 618.957 406.75C624.29 394.25 626.957 377.333 626.957 356V271C626.957 249.833 624.29 233.083 618.957 220.75C613.79 208.25 604.957 199.333 592.457 194C580.124 188.667 563.29 186 541.957 186H442.457V441ZM790.809 483C752.642 483 724.392 473.917 706.059 455.75C687.892 437.417 678.809 409.167 678.809 371V256C678.809 217.5 687.892 189.167 706.059 171C724.225 152.667 752.309 143.667 790.309 144H850.809C882.142 144 906.059 150.5 922.559 163.5C939.059 176.333 948.642 196.667 951.309 224.5C952.309 231.5 950.975 236.833 947.309 240.5C943.642 244.167 938.309 246 931.309 246C918.642 246 911.309 239 909.309 225C907.642 209.667 902.309 199.333 893.309 194C884.475 188.667 870.309 186 850.809 186H790.309C772.642 185.833 758.725 187.833 748.559 192C738.559 196.167 731.392 203.417 727.059 213.75C722.892 223.917 720.809 238 720.809 256V371C720.809 388.833 722.892 402.833 727.059 413C731.392 423.167 738.642 430.417 748.809 434.75C758.975 438.917 772.975 441 790.809 441H850.809C870.309 441 884.475 438.333 893.309 433C902.309 427.5 907.642 417.167 909.309 402C911.309 388 918.642 381 931.309 381C938.309 381 943.642 382.833 947.309 386.5C950.975 390.167 952.309 395.5 951.309 402.5C948.642 430.5 939.059 450.917 922.559 463.75C906.059 476.583 882.142 483 850.809 483H790.809Z" fill="#1C69F1"/>
<rect x="491.5" y="258.5" width="79" height="119" rx="21.5" stroke="#E82D87" stroke-width="7"/>
</svg>
